<?xml version="1.0" encoding="utf-8"?>
<!-- Generator: Adobe Illustrator 18.1.1, SVG Export Plug-In . SVG Version: 6.00 Build 0)  -->
<svg version="1.1" id="Layer_1" xmlns="http://www.w3.org/2000/svg" xmlns:xlink="http://www.w3.org/1999/xlink" x="0px" y="0px"
	 viewBox="0 0 38 38" enable-background="new 0 0 38 38" xml:space="preserve">
<circle opacity="0.2" fill="#27D1BB" cx="19" cy="19" r="13"/>
<g>
	<defs>
		<circle id="SVGID_1_" cx="19" cy="19" r="13"/>
	</defs>
	<clipPath id="SVGID_2_">
		<use xlink:href="#SVGID_1_"  overflow="visible"/>
	</clipPath>
	<g clip-path="url(#SVGID_2_)">
		<g>
			<g>
				<path fill="#0ED1BA" d="M19,37.4c-7.8,0-10.5-2.8-10.5-5.1c0-5.9,4.7-10.7,10.5-10.7c5.8,0,10.6,4.8,10.6,10.7
					C29.5,34.6,26.8,37.4,19,37.4z M19,24.1c-4.4,0-8,3.7-8,8.2c0,1.3,3.2,2.6,8,2.6s8-1.3,8-2.6C27,27.8,23.4,24.1,19,24.1z"/>
			</g>
		</g>
		<g>
			<path fill="#0ED1BA" d="M19,12.4c1.3,0,2.4,1.1,2.4,2.4s-1.1,2.4-2.4,2.4s-2.4-1.1-2.4-2.4S17.7,12.4,19,12.4 M19,9.9
				c-2.7,0-4.9,2.2-4.9,4.9s2.2,4.9,4.9,4.9s4.9-2.2,4.9-4.9S21.7,9.9,19,9.9L19,9.9z"/>
		</g>
	</g>
</g>
</svg>
