<?xml version="1.0" encoding="UTF-8" standalone="no"?>
<svg width="112px" height="112px" viewBox="0 0 112 112" version="1.1" xmlns="http://www.w3.org/2000/svg" xmlns:xlink="http://www.w3.org/1999/xlink" xmlns:sketch="http://www.bohemiancoding.com/sketch/ns">
    <!-- Generator: Sketch 3.5.1 (25234) - http://www.bohemiancoding.com/sketch -->
    <title>192 - xxxhpdi</title>
    <desc>Created with Sketch.</desc>
    <defs>
        <path id="path-1" d="M0,0.718 L83,0.718 L83,85 L0,85"></path>
    </defs>
    <g id="Page-1" stroke="none" stroke-width="1" fill="none" fill-rule="evenodd" sketch:type="MSPage">
        <g id="192---xxxhpdi" sketch:type="MSArtboardGroup">
            <g id="Page-1" sketch:type="MSLayerGroup" transform="translate(7.000000, 15.000000)">
                <path d="M49.3477,42.7178 C35.3707,42.7178 23.9997,54.3808 23.9997,68.7178 C23.9997,72.7178 34.2457,76.9998 49.4997,76.9998 C64.7537,76.9998 74.9997,72.7178 74.9997,68.7178 C74.9997,54.3808 63.4927,42.7178 49.3477,42.7178 M49.4997,84.9998 C24.7737,84.9998 15.9997,76.2298 15.9997,68.7178 C15.9997,49.9698 30.9597,34.7178 49.3477,34.7178 C67.9037,34.7178 82.9997,49.9698 82.9997,68.7178 C82.9997,76.2298 74.2267,84.9998 49.4997,84.9998" id="Fill-1" fill="#0ED1BA" sketch:type="MSShapeGroup"></path>
                <g id="Group-5">
                    <mask id="mask-2" sketch:name="Clip 4" fill="white">
                        <use xlink:href="#path-1"></use>
                    </mask>
                    <g id="Clip-4"></g>
                    <path d="M49.5,0.7178 C40.94,0.7178 34,7.6578 34,16.2178 C34,24.7778 40.94,31.7178 49.5,31.7178 C58.06,31.7178 65,24.7778 65,16.2178 C65,7.6578 58.06,0.7178 49.5,0.7178 M49.5,8.7178 C53.636,8.7178 57,12.0818 57,16.2178 C57,20.3538 53.636,23.7178 49.5,23.7178 C45.364,23.7178 42,20.3538 42,16.2178 C42,12.0818 45.364,8.7178 49.5,8.7178" id="Fill-3" fill="#0ED1BA" sketch:type="MSShapeGroup" mask="url(#mask-2)"></path>
                </g>
                <path d="M24.0397,69.7178 C24.0397,71.9268 22.2487,73.7178 20.0397,73.7178 C17.8307,73.7178 16.0397,71.9268 16.0397,69.7178 C16.0397,67.5088 17.8307,65.7178 20.0397,65.7178 C22.2487,65.7178 24.0397,67.5088 24.0397,69.7178" id="Fill-6" fill="#00716A" sketch:type="MSShapeGroup"></path>
                <path d="M83,69.7178 C83,71.9268 81.218,73.7178 79.02,73.7178 C76.822,73.7178 75.04,71.9268 75.04,69.7178 C75.04,67.5088 76.822,65.7178 79.02,65.7178 C81.218,65.7178 83,67.5088 83,69.7178" id="Fill-8" fill="#00716A" sketch:type="MSShapeGroup"></path>
                <path d="M10.75,35.7178 C8.541,35.7178 6.75,33.9268 6.75,31.7178 L6.75,18.2178 C6.75,16.0088 8.541,14.2178 10.75,14.2178 C12.959,14.2178 14.75,16.0088 14.75,18.2178 L14.75,31.7178 C14.75,33.9268 12.959,35.7178 10.75,35.7178" id="Fill-10" fill="#0ED1BA" sketch:type="MSShapeGroup"></path>
                <path d="M17.5,28.9678 L4,28.9678 C1.791,28.9678 0,27.1768 0,24.9678 C0,22.7588 1.791,20.9678 4,20.9678 L17.5,20.9678 C19.709,20.9678 21.5,22.7588 21.5,24.9678 C21.5,27.1768 19.709,28.9678 17.5,28.9678" id="Fill-12" fill="#0ED1BA" sketch:type="MSShapeGroup"></path>
            </g>
        </g>
    </g>
</svg>