<?xml version="1.0" encoding="UTF-8" standalone="no"?>
<svg width="112px" height="112px" viewBox="0 0 112 112" version="1.1" xmlns="http://www.w3.org/2000/svg" xmlns:xlink="http://www.w3.org/1999/xlink" xmlns:sketch="http://www.bohemiancoding.com/sketch/ns">
    <!-- Generator: Sketch 3.5.1 (25234) - http://www.bohemiancoding.com/sketch -->
    <title>192 - xxxhpdi</title>
    <desc>Created with Sketch.</desc>
    <defs>
        <path id="path-1" d="M0,0 L95.902,0 L95.902,80 L0,80"></path>
    </defs>
    <g id="Page-1" stroke="none" stroke-width="1" fill="none" fill-rule="evenodd" sketch:type="MSPage">
        <g id="192---xxxhpdi" sketch:type="MSArtboardGroup">
            <g id="Group-2" sketch:type="MSLayerGroup" transform="translate(8.000000, 16.000000)">
                <g id="Page-1">
                    <g id="Group-3">
                        <mask id="mask-2" sketch:name="Clip 2" fill="white">
                            <use xlink:href="#path-1"></use>
                        </mask>
                        <g id="Clip-2"></g>
                        <path d="M24.9985,38 C15.6255,38 7.9995,45.626 7.9995,55 C7.9995,64.374 15.6265,72 25.0005,72 L65.4625,72 C65.7575,71.881 66.0695,71.796 66.3965,71.749 C78.6565,70.002 87.9015,59.343 87.9015,46.955 C87.9015,33.195 76.7275,22 62.9905,22 C52.6885,22 43.4325,28.658 39.9565,38.566 C39.5525,39.716 38.6475,40.619 37.4975,41.02 C36.3475,41.42 35.0775,41.275 34.0465,40.625 C31.3255,38.908 28.1965,38 24.9985,38 M66.9615,80 L25.0005,80 C11.2155,80 -0.0005,68.785 -0.0005,55 C-0.0005,41.215 11.2145,30 24.9985,30 C28.1615,30 31.2765,30.602 34.1925,31.76 C39.7225,20.979 50.8005,14 62.9905,14 C81.1385,14 95.9015,28.783 95.9015,46.955 C95.9015,62.785 84.4605,76.476 69.0435,79.416 C68.4365,79.787 67.7245,80 66.9615,80" id="Fill-1" fill="white" sketch:type="MSShapeGroup" mask="url(#mask-2)"></path>
                    </g>
                    <path d="M71.0011,76 C71.0011,78.209 69.2101,80 67.0011,80 C64.7921,80 63.0011,78.209 63.0011,76 C63.0011,73.791 64.7921,72 67.0011,72 C69.2101,72 71.0011,73.791 71.0011,76" id="Fill-4" fill="white" sketch:type="MSShapeGroup"></path>
                    <path d="M40.0011,37 C40.0011,39.209 38.2101,41 36.0011,41 C33.7921,41 32.0011,39.209 32.0011,37 C32.0011,34.791 33.7921,33 36.0011,33 C38.2101,33 40.0011,34.791 40.0011,37" id="Fill-6" fill="white" sketch:type="MSShapeGroup"></path>
                    <path d="M11.0448,4 L11.0448,17.5" id="Stroke-8" stroke="white" stroke-width="8" stroke-linecap="round" sketch:type="MSShapeGroup"></path>
                    <path d="M17.7948,10.75 L4.2948,10.75" id="Stroke-10" stroke="white" stroke-width="8" stroke-linecap="round" sketch:type="MSShapeGroup"></path>
                </g>
            </g>
        </g>
    </g>
</svg>
