<?xml version="1.0" encoding="utf-8"?>
<!-- Generator: Adobe Illustrator 18.1.1, SVG Export Plug-In . SVG Version: 6.00 Build 0)  -->
<svg version="1.1" id="Layer_1" xmlns="http://www.w3.org/2000/svg" xmlns:xlink="http://www.w3.org/1999/xlink" x="0px" y="0px"
	 viewBox="0 0 38 38" enable-background="new 0 0 38 38" xml:space="preserve">
<circle opacity="0.2" fill="#27D1BB" cx="19" cy="19" r="13"/>
<g>
	<path fill="#0ED1BA" d="M22.3,25h-7.7c-2.8,0-5-2.1-5-4.9c0-2.8,2.3-5,5-5c0.9,0,1.7,0.3,2.4,0.7c1.1-1.8,3.1-3,5.3-3
		c3.4,0,6.2,2.6,6.2,6.1C28.5,22.4,25.7,25,22.3,25z M14.5,17.4c-1.6,0-2.9,1.2-2.9,2.8c0,1.6,1.3,2.8,2.9,2.8h7.7
		c2.2,0,4.1-1.7,4.1-4c0-2.3-1.8-4.1-4.1-4.1c-1.8,0-3.3,1.2-3.9,2.9c-0.1,0.4-0.4,0.6-0.8,0.7c-0.4,0.1-0.8,0-1-0.3
		C16.1,17.7,15.3,17.4,14.5,17.4z"/>
</g>
</svg>
