<?xml version="1.0" encoding="UTF-8" standalone="no"?>
<svg width="237px" height="102px" viewBox="0 0 237 102" version="1.1" xmlns="http://www.w3.org/2000/svg" xmlns:xlink="http://www.w3.org/1999/xlink" xmlns:sketch="http://www.bohemiancoding.com/sketch/ns">
    <!-- Generator: Sketch 3.5.1 (25234) - http://www.bohemiancoding.com/sketch -->
    <title>192 - xxxhpdi</title>
    <desc>Created with Sketch.</desc>
    <defs></defs>
    <g id="Page-1" stroke="none" stroke-width="1" fill="none" fill-rule="evenodd" sketch:type="MSPage">
        <g id="192---xxxhpdi" sketch:type="MSArtboardGroup" fill="#FFFFFF">
            <g id="Imported-Layers-9-Copy" sketch:type="MSLayerGroup" transform="translate(24.000000, 24.000000)">
                <path d="M10.214523,27.2341656 C10.214523,26.0060949 11.2171616,25.0106311 12.453607,25.0106311 C13.6900524,25.0106311 14.6926911,26.0060949 14.6926911,27.2341656 C14.6926911,34.0399271 20.1412853,39.5767315 26.8384847,39.5767315 C33.535684,39.5767315 38.9842783,34.0399271 38.9842783,27.2341656 C38.9842783,26.0060949 39.9869169,25.0106311 41.2233623,25.0106311 C42.4598077,25.0106311 43.4624463,26.0060949 43.4624463,27.2341656 C43.4624463,36.4918315 36.0049483,44.0235888 26.8384847,44.0235888 C17.6720211,44.0235888 10.214523,36.4918315 10.214523,27.2341656 Z" id="Fill-1" sketch:type="MSShapeGroup"></path>
                <path d="M49.25214,27.6123386 C49.25214,15.3595734 39.2839306,5.39114914 27.0309505,5.39114914 C14.7781852,5.39114914 4.809761,15.3595734 4.809761,27.6123386 L0.0309505038,27.6123386 C0.0309505038,12.7241589 12.1432004,0.61233864 27.0309505,0.61233864 C41.9187006,0.61233864 54.0309505,12.7243737 54.0309505,27.6123386 L49.25214,27.6123386 Z" id="Fill-2" fill-opacity="0.75" sketch:type="MSShapeGroup"></path>
                <path d="M27.0310579,54.2341656 C12.1432486,54.2341656 0.0309505038,42.1219157 0.0309505038,27.2341656 L4.80978002,27.2341656 C4.80978002,39.4869309 14.7780291,49.4553551 27.0310579,49.4553551 C39.283872,49.4553551 49.2523358,39.4869309 49.2523358,27.2341656 L54.0309505,27.2341656 C54.0309505,42.1219157 41.9190821,54.2341656 27.0310579,54.2341656" id="Fill-3" fill-opacity="0.5" sketch:type="MSShapeGroup"></path>
            </g>
            <g id="Group" sketch:type="MSLayerGroup" transform="translate(95.000000, 27.000000)">
                <path d="M37.708,3.068 C39.2200076,4.58000756 39.976,6.39798938 39.976,8.522 C39.976,10.6460106 39.2200076,12.4579925 37.708,13.958 C36.1959924,15.4580075 34.3720107,16.208 32.236,16.208 L27.808,16.208 L27.808,24.02 C27.808,24.5720028 27.610002,25.0399981 27.214,25.424 C26.817998,25.8080019 26.3440028,26 25.792,26 C25.2399972,26 24.7720019,25.8080019 24.388,25.424 C24.0039981,25.0399981 23.812,24.5720028 23.812,24.02 L23.812,2.78 C23.812,2.22799724 24.0039981,1.76000192 24.388,1.376 C24.7720019,0.99199808 25.2399972,0.8 25.792,0.8 L32.236,0.8 C34.3720107,0.8 36.1959924,1.55599244 37.708,3.068 L37.708,3.068 Z M27.808,4.796 L27.808,12.212 L32.236,12.212 C33.2680052,12.212 34.1439964,11.8520036 34.864,11.132 C35.5840036,10.4119964 35.9559999,9.54800504 35.98,8.54 C35.9559999,7.48399472 35.5840036,6.5960036 34.864,5.876 C34.1439964,5.1559964 33.2680052,4.796 32.236,4.796 L27.808,4.796 Z M48.292,10.16 C48.8440028,9.51199676 49.5999952,8.99000198 50.56,8.594 C51.5200048,8.19799802 52.395996,8.00599994 53.188,8.018 C53.980004,8.03000006 54.5619981,8.2159982 54.934,8.576 C55.3060019,8.9360018 55.492,9.37399742 55.492,9.89 C55.492,10.4060026 55.3060019,10.8559981 54.934,11.24 C54.5619981,11.6240019 54.1120026,11.816 53.584,11.816 C51.3519888,11.816 49.5880065,13.6279819 48.292,17.252 L48.292,24.092 C48.292,24.6200026 48.1000019,25.0699981 47.716,25.442 C47.3319981,25.8140019 46.8700027,26 46.33,26 C45.7899973,26 45.3340019,25.8140019 44.962,25.442 C44.5899981,25.0699981 44.404,24.6200026 44.404,24.092 L44.404,9.908 C44.404,9.37999736 44.5899981,8.9360018 44.962,8.576 C45.3340019,8.2159982 45.7899973,8.036 46.33,8.036 C46.8700027,8.036 47.3319981,8.2159982 47.716,8.576 C48.1000019,8.9360018 48.292,9.37999736 48.292,9.908 L48.292,10.16 Z M68.056,26.108 C65.6319879,26.108 63.5800084,25.2200089 61.9,23.444 C60.2199916,21.6679911 59.38,19.5440124 59.38,17.072 C59.38,14.5999876 60.2259915,12.4700089 61.918,10.682 C63.6100085,8.89399106 65.6439881,8 68.02,8 C70.3960119,8 72.4179917,8.90599094 74.086,10.718 C75.7540083,12.5300091 76.588,14.6839875 76.588,17.18 C76.588,19.6760125 75.7480084,21.7399918 74.068,23.372 C72.4839921,25.1960091 70.4800121,26.108 68.056,26.108 L68.056,26.108 Z M64.6,13.292 C63.7359957,14.300005 63.304,15.5479926 63.304,17.036 C63.304,18.5240074 63.7359957,19.7959947 64.6,20.852 C65.5360047,21.7400044 66.6639934,22.184 67.984,22.184 C69.3040066,22.184 70.4319953,21.7400044 71.368,20.852 C72.3040047,19.7959947 72.772,18.5240074 72.772,17.036 C72.772,15.5479926 72.3040047,14.300005 71.368,13.292 C70.3359948,12.3799954 69.2080061,11.924 67.984,11.924 C66.7599939,11.924 65.6320052,12.3799954 64.6,13.292 L64.6,13.292 Z M93.886,8.27 C94.4020026,8.18599958 94.8699979,8.2939985 95.29,8.594 C95.7100021,8.8940015 95.9619996,9.30199742 96.046,9.818 C96.1300004,10.3340026 96.0160016,10.7839981 95.704,11.168 L91.42,17.072 L95.704,23.012 C96.0160016,23.420002 96.1300004,23.8879974 96.046,24.416 C95.9619996,24.9440026 95.7280019,25.3399987 95.344,25.604 C94.9599981,25.8680013 94.5400023,26 94.084,26 C93.6279977,26 93.1360026,25.7360026 92.608,25.208 L89.008,20.276 L85.408,25.208 C84.9519977,25.7360026 84.4840024,26 84.004,26 C83.5239976,26 83.1160017,25.8680013 82.78,25.604 C82.371998,25.3399987 82.1260004,24.9380027 82.042,24.398 C81.9579996,23.8579973 82.0719984,23.3960019 82.384,23.012 L86.704,17.072 L82.384,11.168 C82.0719984,10.7839981 81.9579996,10.3340026 82.042,9.818 C82.1260004,9.30199742 82.3779979,8.8940015 82.798,8.594 C83.2180021,8.2939985 83.6739975,8.18599958 84.166,8.27 C84.6580025,8.35400042 85.0719983,8.59999796 85.408,9.008 L89.008,13.832 L92.608,9.008 C92.9440017,8.59999796 93.3699974,8.35400042 93.886,8.27 L93.886,8.27 Z M114.856,8 C115.384003,8 115.839998,8.18599814 116.224,8.558 C116.608002,8.93000186 116.8,9.37999736 116.8,9.908 L116.8,23.516 C116.8,25.916012 115.966008,27.9499917 114.298,29.618 C112.629992,31.2860083 110.596012,32.12 108.196,32.12 C106.923994,32.12 105.688006,31.820003 104.488,31.22 C103.983997,31.0039989 103.648001,30.6500025 103.48,30.158 C103.311999,29.6659975 103.335999,29.1680025 103.552,28.664 C103.792001,28.2319978 104.169997,27.9320008 104.686,27.764 C105.202003,27.5959992 105.747997,27.6559986 106.324,27.944 C106.900003,28.2320014 107.619996,28.3700001 108.484,28.358 C109.348004,28.3459999 110.193996,28.0340031 111.022,27.422 C111.850004,26.8099969 112.407999,26.0360047 112.696,25.1 C111.687995,25.6760029 110.548006,25.964 109.276,25.964 C107.21199,25.964 105.442007,25.2200074 103.966,23.732 C102.489993,22.2439926 101.752,20.4680103 101.752,18.404 L101.752,9.908 C101.752,9.37999736 101.937998,8.93000186 102.31,8.558 C102.682002,8.18599814 103.131997,8 103.66,8 C104.188003,8 104.631998,8.1799982 104.992,8.54 C105.352002,8.9000018 105.532,9.35599724 105.532,9.908 L105.532,18.404 C105.532,19.4360052 105.897996,20.3059965 106.63,21.014 C107.362004,21.7220035 108.243995,22.076 109.276,22.076 C110.308005,22.076 111.183996,21.7220035 111.904,21.014 C112.624004,20.3059965 112.984,19.4360052 112.984,18.404 L112.984,9.908 C112.984,9.35599724 113.163998,8.9000018 113.524,8.54 C113.884002,8.1799982 114.327997,8 114.856,8 L114.856,8 Z" id="uProxy" sketch:type="MSShapeGroup"></path>
                <path d="M16.0739979,18.512 C16.0739979,20.5520102 15.3240054,22.3099926 13.8239979,23.786 C12.3239904,25.2620074 10.5480081,26 8.49599786,26 C6.4439876,26 4.68000524,25.2680073 3.20399786,23.804 C1.72799048,22.3399927 0.989997864,20.5760103 0.989997864,18.512 L0.989997864,9.908 C0.989997864,9.40399748 1.175996,8.96000192 1.54799786,8.576 C1.91999972,8.19199808 2.36999522,8 2.89799786,8 C3.4260005,8 3.875996,8.19199808 4.24799786,8.576 C4.61999972,8.96000192 4.80599786,9.40399748 4.80599786,9.908 L4.80599786,18.512 C4.80599786,19.5440052 5.15999432,20.4139965 5.86799786,21.122 C6.5760014,21.8300035 7.4459927,22.184 8.47799786,22.184 C9.51000302,22.184 10.3919942,21.8300035 11.1239979,21.122 C11.8560015,20.4139965 12.2339977,19.5440052 12.2579979,18.512 L12.2579979,9.908 C12.2579979,9.40399748 12.4379961,8.96000192 12.7979979,8.576 C13.1579997,8.19199808 13.5959953,8 14.1119979,8 C14.6280004,8 15.0839959,8.19199808 15.4799979,8.576 C15.8759998,8.96000192 16.0739979,9.40399748 16.0739979,9.908 L16.0739979,18.512 Z" id="Path" fill-opacity="0.75" sketch:type="MSShapeGroup"></path>
            </g>
            <circle id="Oval-1" sketch:type="MSShapeGroup" cx="26.5" cy="51.5" r="2.5"></circle>
            <path d="M75.5,54 C76.8807119,54 78,52.8807119 78,51.5 C78,50.1192881 76.8807119,49 75.5,49 C74.1192881,49 73,50.1192881 73,51.5 C73,52.8807119 74.1192881,54 75.5,54 Z" id="Oval-1-Copy" sketch:type="MSShapeGroup"></path>
            <path d="M102.491923,72.3514316 C102.491923,71.6087734 101.632016,71.0762172 99.9121758,70.7537471 L99.8828605,70.7537471 C99.1206585,70.6071698 98.4610706,70.4019647 97.9040769,70.1381256 C97.3470832,69.8742864 96.9391158,69.5347208 96.6801626,69.1194185 C96.4212094,68.7041161 96.2917347,68.2766054 96.2917347,67.8368736 C96.2917347,66.9867253 96.6655012,66.2880506 97.4130454,65.7408287 C98.1605896,65.1936068 99.0229398,64.92 100.000122,64.92 C100.430082,64.92 100.869807,64.9932875 101.319311,65.1398648 C101.768814,65.2864421 102.103494,65.4232456 102.32336,65.5502792 C102.543226,65.6773129 102.833933,65.8580888 103.195491,66.0926125 C103.361612,66.2098743 103.466657,66.3711069 103.51063,66.5763151 C103.554604,66.7815233 103.520403,66.9696281 103.408027,67.1406349 C103.295651,67.3116417 103.136861,67.4191301 102.931653,67.4631033 C102.726445,67.5070765 102.535897,67.4704327 102.360004,67.3531709 C101.900729,67.0404727 101.492761,66.8059525 101.13609,66.6496034 C100.779419,66.4932543 100.400766,66.4150809 100.000122,66.4150809 C99.3551816,66.4150809 98.8275113,66.5665419 98.4170949,66.8694683 C98.0066784,67.1723947 97.8014733,67.4948599 97.8014733,67.8368736 C97.8014733,68.0029945 97.84056,68.1446838 97.9187345,68.2619456 C98.1923455,68.7114493 98.9301068,69.048572 100.132041,69.2733239 L100.161356,69.2733239 C100.982189,69.4394448 101.656434,69.6446499 102.184112,69.8889454 C103.395818,70.4850264 104.001662,71.3058469 104.001662,72.3514316 C104.001662,73.2602109 103.601023,74.0053009 102.799734,74.5867242 C101.998445,75.1681475 101.075022,75.4588547 100.029437,75.4588547 C98.7493287,75.4490829 97.4985545,74.9604993 96.2770771,73.9930891 C96.120728,73.8660555 96.03034,73.6950512 96.0059104,73.4800712 C95.9814809,73.2650911 96.0327822,73.0794293 96.1598158,72.9230802 C96.2868495,72.7667311 96.4578537,72.6763431 96.6728338,72.6519136 C96.8878138,72.627484 97.0734756,72.6836712 97.2298247,72.8204766 C98.1679194,73.5826786 99.1011142,73.958888 100.029437,73.9491162 C100.762323,73.9491162 101.355953,73.7805548 101.810342,73.443427 C102.264732,73.1062992 102.491923,72.7423044 102.491923,72.3514316 L102.491923,72.3514316 Z M112.588954,71.6185488 C112.588954,71.8335289 112.51811,72.0069761 112.376418,72.1388956 C112.234727,72.2708152 112.046622,72.336774 111.812099,72.336774 L107.150964,72.336774 C107.23891,72.7569622 107.405029,73.0794274 107.649324,73.3041793 C107.962022,73.6657366 108.418848,73.8831563 109.019815,73.956445 C109.620782,74.0297336 110.141124,73.9100306 110.580855,73.5973324 C110.727433,73.4409833 110.922866,73.3628099 111.167162,73.3628099 C111.411457,73.3628099 111.582461,73.4263258 111.68018,73.5533594 C111.953791,73.8562858 111.953791,74.1738652 111.68018,74.5061071 C110.976609,75.1510472 110.114259,75.4710695 109.093103,75.4661836 C108.071948,75.4612976 107.216927,75.1021887 106.528014,74.3888458 C105.8391,73.675503 105.489763,72.8155958 105.479991,71.8090984 C105.489763,70.8026009 105.8391,69.9402508 106.528014,69.2220221 C107.216927,68.5037933 108.049962,68.1446843 109.027144,68.1446843 C110.004326,68.1446843 110.827589,68.4647066 111.496959,69.1047608 C112.166329,69.744815 112.530323,70.5583068 112.588954,71.5452606 L112.588954,71.6185488 Z M109.056459,69.5371617 C108.489694,69.5664771 108.035311,69.7423672 107.693297,70.0648373 C107.351284,70.3873073 107.146078,70.7293159 107.077676,71.0908732 L111.225792,71.0908732 C111.137846,70.7488595 110.900883,70.4166226 110.514896,70.0941526 C110.128909,69.7716826 109.642768,69.5860208 109.056459,69.5371617 L109.056459,69.5371617 Z M116.397851,69.0241437 C116.622603,68.7603046 116.930411,68.5477707 117.321283,68.3865357 C117.712156,68.2253006 118.068822,68.1471273 118.391292,68.1520132 C118.713762,68.1568991 118.950725,68.2326295 119.102189,68.3792068 C119.253652,68.5257841 119.329382,68.7041172 119.329382,68.9142113 C119.329382,69.1243054 119.253652,69.3075243 119.102189,69.4638734 C118.950725,69.6202225 118.767506,69.6983959 118.552526,69.6983959 C117.643747,69.6983959 116.925529,70.4361572 116.397851,71.911702 L116.397851,74.6966566 C116.397851,74.9116366 116.319678,75.0948555 116.163328,75.2463187 C116.006979,75.3977819 115.818875,75.4735124 115.599009,75.4735124 C115.379143,75.4735124 115.193481,75.3977819 115.042018,75.2463187 C114.890555,75.0948555 114.814824,74.9116366 114.814824,74.6966566 L114.814824,68.9215401 C114.814824,68.7065601 114.890555,68.5257841 115.042018,68.3792068 C115.193481,68.2326295 115.379143,68.159342 115.599009,68.159342 C115.818875,68.159342 116.006979,68.2326295 116.163328,68.3792068 C116.319678,68.5257841 116.397851,68.7065601 116.397851,68.9215401 L116.397851,69.0241437 Z M123.519378,75.4148818 C123.353257,75.3367072 123.257983,75.2707484 123.233554,75.2170034 C123.209124,75.1632584 123.192024,75.1315005 123.182252,75.1217286 C123.152936,75.1119568 123.128507,75.0728701 123.108964,75.0044674 L120.734423,69.3172968 C120.646477,69.1218604 120.644034,68.9288699 120.727094,68.7383194 C120.810155,68.5477689 120.954287,68.4085226 121.159495,68.3205762 C121.335388,68.2326298 121.52105,68.2326298 121.716486,68.3205762 C121.911923,68.4085226 122.053612,68.5502118 122.141558,68.7456482 L123.827189,72.7325307 L125.527477,68.7456482 C125.605651,68.5502118 125.740012,68.4085226 125.930562,68.3205762 C126.121113,68.2326298 126.316546,68.2326298 126.516869,68.3205762 C126.717191,68.4085226 126.85888,68.5477689 126.941941,68.7383194 C127.025001,68.9288699 127.022558,69.1218604 126.934612,69.3172968 L124.530756,75.0044674 C124.511213,75.0533265 124.491669,75.0875273 124.472126,75.107071 C124.452582,75.1266146 124.433039,75.1486009 124.413495,75.1730304 C124.393951,75.19746 124.362193,75.2292179 124.31822,75.2683052 C124.274247,75.3073925 124.242489,75.3391504 124.222945,75.36358 C124.203402,75.3880095 124.178973,75.4051099 124.149657,75.4148818 L124.120342,75.4148818 L124.120342,75.4295394 C124.081255,75.4295394 124.042168,75.4393111 124.003081,75.4588547 L123.973765,75.4588547 C123.934678,75.4686266 123.888263,75.4735124 123.834517,75.4735124 C123.780772,75.4735124 123.734357,75.4686266 123.69527,75.4588547 L123.665954,75.4588547 C123.607324,75.4393111 123.568237,75.4295394 123.548693,75.4295394 L123.548693,75.4148818 L123.519378,75.4148818 Z M136.166841,71.6185488 C136.166841,71.8335289 136.095997,72.0069761 135.954305,72.1388956 C135.812614,72.2708152 135.624509,72.336774 135.389985,72.336774 L130.728851,72.336774 C130.816797,72.7569622 130.982916,73.0794274 131.227211,73.3041793 C131.539909,73.6657366 131.996735,73.8831563 132.597702,73.956445 C133.198669,74.0297336 133.71901,73.9100306 134.158742,73.5973324 C134.30532,73.4409833 134.500753,73.3628099 134.745049,73.3628099 C134.989344,73.3628099 135.160348,73.4263258 135.258066,73.5533594 C135.531677,73.8562858 135.531677,74.1738652 135.258066,74.5061071 C134.554495,75.1510472 133.692145,75.4710695 132.67099,75.4661836 C131.649835,75.4612976 130.794814,75.1021887 130.1059,74.3888458 C129.416987,73.675503 129.06765,72.8155958 129.057878,71.8090984 C129.06765,70.8026009 129.416987,69.9402508 130.1059,69.2220221 C130.794814,68.5037933 131.627849,68.1446843 132.605031,68.1446843 C133.582213,68.1446843 134.405476,68.4647066 135.074846,69.1047608 C135.744215,69.744815 136.10821,70.5583068 136.166841,71.5452606 L136.166841,71.6185488 Z M132.634346,69.5371617 C132.06758,69.5664771 131.613198,69.7423672 131.271184,70.0648373 C130.92917,70.3873073 130.723965,70.7293159 130.655562,71.0908732 L134.803679,71.0908732 C134.715733,70.7488595 134.47877,70.4166226 134.092783,70.0941526 C133.706796,69.7716826 133.220655,69.5860208 132.634346,69.5371617 L132.634346,69.5371617 Z M139.975738,69.0241437 C140.20049,68.7603046 140.508297,68.5477707 140.89917,68.3865357 C141.290043,68.2253006 141.646709,68.1471273 141.969179,68.1520132 C142.291649,68.1568991 142.528612,68.2326295 142.680075,68.3792068 C142.831539,68.5257841 142.907269,68.7041172 142.907269,68.9142113 C142.907269,69.1243054 142.831539,69.3075243 142.680075,69.4638734 C142.528612,69.6202225 142.345393,69.6983959 142.130413,69.6983959 C141.221634,69.6983959 140.503416,70.4361572 139.975738,71.911702 L139.975738,74.6966566 C139.975738,74.9116366 139.897564,75.0948555 139.741215,75.2463187 C139.584866,75.3977819 139.396761,75.4735124 139.176896,75.4735124 C138.95703,75.4735124 138.771368,75.3977819 138.619905,75.2463187 C138.468441,75.0948555 138.392711,74.9116366 138.392711,74.6966566 L138.392711,68.9215401 C138.392711,68.7065601 138.468441,68.5257841 138.619905,68.3792068 C138.771368,68.2326295 138.95703,68.159342 139.176896,68.159342 C139.396761,68.159342 139.584866,68.2326295 139.741215,68.3792068 C139.897564,68.5257841 139.975738,68.7065601 139.975738,68.9215401 L139.975738,69.0241437 Z M153.60317,71.7651254 L153.573855,71.7651254 C153.290472,71.7651254 153.065723,71.6527512 152.899603,71.4279993 L150.803558,68.4964681 L150.803558,74.6673413 C150.803558,74.8920932 150.722941,75.0826408 150.561706,75.2389899 C150.400471,75.395339 150.207481,75.4735124 149.982729,75.4735124 C149.757977,75.4735124 149.56743,75.395339 149.41108,75.2389899 C149.254731,75.0826408 149.176558,74.8920932 149.176558,74.6673413 L149.176558,66.0193242 C149.176558,65.7945724 149.254731,65.6040247 149.41108,65.4476756 C149.56743,65.2913265 149.757977,65.2131531 149.982729,65.2131531 L150.026702,65.2131531 C150.310085,65.2131531 150.525062,65.3255274 150.671639,65.5502792 L153.588512,69.5957923 L156.505386,65.5502792 C156.671507,65.3255274 156.89137,65.2131531 157.16498,65.2131531 L157.179638,65.2131531 C157.40439,65.2229249 157.597381,65.3059842 157.758616,65.4623333 C157.919851,65.6186824 158.000467,65.8043442 158.000467,66.0193242 L158.000467,74.6673413 C158.000467,74.8823213 157.919851,75.070426 157.758616,75.2316611 C157.597381,75.3928961 157.40439,75.4735124 157.179638,75.4735124 C156.954886,75.4735124 156.764339,75.395339 156.60799,75.2389899 C156.45164,75.0826408 156.373467,74.8920932 156.373467,74.6673413 L156.373467,68.4964681 L154.262765,71.4279993 C154.096644,71.6527512 153.876781,71.7651254 153.60317,71.7651254 L153.60317,71.7651254 Z M161.508882,74.4035035 C160.839512,73.6901607 160.504832,72.8278105 160.504832,71.8164272 C160.504832,70.8050439 160.839512,69.9402508 161.508882,69.2220221 C162.178251,68.5037933 163.0064,68.1446843 163.993354,68.1446843 C164.687153,68.1446843 165.33697,68.3596611 165.942823,68.7896212 C165.991682,68.6039566 166.084513,68.4500528 166.221318,68.327905 C166.358123,68.2057573 166.526685,68.1446843 166.727007,68.1446843 C166.927329,68.1446843 167.10322,68.2228577 167.254683,68.3792068 C167.406146,68.535556 167.481876,68.7212177 167.481876,68.9361978 L167.481876,74.6966566 C167.481876,74.9116366 167.406146,75.0948555 167.254683,75.2463187 C167.10322,75.3977819 166.927329,75.4735124 166.727007,75.4735124 C166.526685,75.4735124 166.358123,75.4148823 166.221318,75.2976205 C166.084513,75.1803587 165.991682,75.0288977 165.942823,74.8432332 C165.346742,75.2634214 164.696925,75.4735124 163.993354,75.4735124 C163.0064,75.4735124 162.178251,75.1168463 161.508882,74.4035035 L161.508882,74.4035035 Z M162.608206,73.3041793 C162.964877,73.7048239 163.424146,73.9051432 163.986025,73.9051432 C164.547905,73.9051432 165.01206,73.7048239 165.378503,73.3041793 C165.744946,72.9035347 165.928165,72.4100652 165.928165,71.823756 C165.928165,71.2374468 165.742503,70.7390915 165.371174,70.3286751 C164.999845,69.9182587 164.538133,69.7130535 163.986025,69.7130535 C163.433918,69.7130535 162.977092,69.9158158 162.615535,70.3213463 C162.253977,70.7268768 162.073201,71.2252321 162.073201,71.8164272 C162.073201,72.4076223 162.251534,72.9035347 162.608206,73.3041793 L162.608206,73.3041793 Z M171.833106,74.6966566 C171.833106,74.9116366 171.750047,75.0948555 171.583926,75.2463187 C171.417805,75.3977819 171.229701,75.4735124 171.019606,75.4735124 C170.809512,75.4735124 170.628736,75.3977819 170.477273,75.2463187 C170.32581,75.0948555 170.250079,74.9116366 170.250079,74.6966566 L170.250079,68.9215401 C170.250079,68.7065601 170.32581,68.5233412 170.477273,68.371878 C170.628736,68.2204148 170.811955,68.1446843 171.026935,68.1446843 C171.359177,68.1446843 171.598583,68.2961453 171.74516,68.5990717 C172.22398,68.2961453 172.741878,68.1446843 173.298872,68.1446843 C174.14902,68.1446843 174.872124,68.4451633 175.468205,69.0461302 C176.064286,69.6470971 176.362322,70.3628721 176.362322,71.1934768 L176.362322,74.6966566 C176.362322,74.9116366 176.289034,75.0948555 176.142457,75.2463187 C175.99588,75.3977819 175.817547,75.4735124 175.607453,75.4735124 C175.397359,75.4735124 175.21414,75.3977819 175.057791,75.2463187 C174.901442,75.0948555 174.823268,74.9116366 174.823268,74.6966566 L174.823268,71.1934768 C174.823268,70.7830604 174.67425,70.4337231 174.37621,70.1454544 C174.078169,69.8571857 173.721503,69.7130535 173.306201,69.7130535 C172.890898,69.7130535 172.541561,69.8571857 172.258178,70.1454544 C171.974796,70.4337231 171.833106,70.7830604 171.833106,71.1934768 L171.833106,74.6966566 Z M179.357719,74.4035035 C178.688349,73.6901607 178.353669,72.8278105 178.353669,71.8164272 C178.353669,70.8050439 178.688349,69.9402508 179.357719,69.2220221 C180.027088,68.5037933 180.855238,68.1446843 181.842191,68.1446843 C182.535991,68.1446843 183.185807,68.3596611 183.79166,68.7896212 C183.840519,68.6039566 183.93335,68.4500528 184.070155,68.327905 C184.206961,68.2057573 184.375522,68.1446843 184.575844,68.1446843 C184.776167,68.1446843 184.952057,68.2228577 185.10352,68.3792068 C185.254983,68.535556 185.330714,68.7212177 185.330714,68.9361978 L185.330714,74.6966566 C185.330714,74.9116366 185.254983,75.0948555 185.10352,75.2463187 C184.952057,75.3977819 184.776167,75.4735124 184.575844,75.4735124 C184.375522,75.4735124 184.206961,75.4148823 184.070155,75.2976205 C183.93335,75.1803587 183.840519,75.0288977 183.79166,74.8432332 C183.195579,75.2634214 182.545762,75.4735124 181.842191,75.4735124 C180.855238,75.4735124 180.027088,75.1168463 179.357719,74.4035035 L179.357719,74.4035035 Z M180.457043,73.3041793 C180.813714,73.7048239 181.272983,73.9051432 181.834863,73.9051432 C182.396742,73.9051432 182.860897,73.7048239 183.22734,73.3041793 C183.593783,72.9035347 183.777002,72.4100652 183.777002,71.823756 C183.777002,71.2374468 183.59134,70.7390915 183.220011,70.3286751 C182.848682,69.9182587 182.38697,69.7130535 181.834863,69.7130535 C181.282755,69.7130535 180.825929,69.9158158 180.464372,70.3213463 C180.102814,70.7268768 179.922039,71.2252321 179.922039,71.8164272 C179.922039,72.4076223 180.100372,72.9035347 180.457043,73.3041793 L180.457043,73.3041793 Z M188.64125,74.4181611 C187.957223,73.7145901 187.615214,72.8571258 187.615214,71.8457425 C187.615214,70.8343592 187.957223,69.9646803 188.64125,69.2366797 C189.325277,68.5086792 190.15587,68.1446843 191.133051,68.1446843 C191.87571,68.1446843 192.530412,68.3498895 193.097177,68.7603059 C193.136265,68.5844131 193.229096,68.437838 193.375673,68.3205762 C193.52225,68.2033144 193.695697,68.1446843 193.89602,68.1446843 C194.096342,68.1446843 194.272232,68.2204148 194.423695,68.371878 C194.575158,68.5233412 194.650889,68.7065601 194.650889,68.9215401 L194.650889,74.5793954 C194.650889,75.5468055 194.306437,76.3749548 193.617524,77.0638681 C192.928611,77.7527814 192.100462,78.0972328 191.133051,78.0972328 C190.576058,78.0972328 190.063045,77.9750869 189.593998,77.7307914 C189.398561,77.642845 189.266644,77.493827 189.198241,77.2837329 C189.129838,77.0736388 189.144496,76.8708766 189.242214,76.6754402 C189.339932,76.4800038 189.48895,76.3480862 189.689272,76.2796835 C189.889595,76.2112807 190.092357,76.2210524 190.297565,76.3089988 C190.551632,76.4458043 190.871655,76.514206 191.257642,76.514206 C191.643628,76.514206 192.014952,76.365188 192.371623,76.0671475 C192.728295,75.769107 192.955486,75.3953405 193.053204,74.9458368 C192.486439,75.3367096 191.846394,75.532143 191.133051,75.532143 C190.15587,75.532143 189.325277,75.1608194 188.64125,74.4181611 L188.64125,74.4181611 Z M189.755232,73.3334946 C190.126561,73.743911 190.588273,73.9491162 191.14038,73.9491162 C191.692488,73.9491162 192.1542,73.7487969 192.525529,73.3481523 C192.896858,72.9475077 193.08252,72.4491523 193.08252,71.8530713 C193.08252,71.2569903 192.894415,70.7513063 192.5182,70.3360039 C192.141985,69.9207016 191.685159,69.7130535 191.147709,69.7130535 C190.610259,69.7130535 190.15099,69.9255874 189.769889,70.3506616 C189.388789,70.7757357 189.198241,71.276534 189.198241,71.8530713 C189.198241,72.4296087 189.383903,72.9230782 189.755232,73.3334946 L189.755232,73.3334946 Z M204.264217,71.6185488 C204.264217,71.8335289 204.193373,72.0069761 204.051681,72.1388956 C203.90999,72.2708152 203.721885,72.336774 203.487362,72.336774 L198.826227,72.336774 C198.914173,72.7569622 199.080292,73.0794274 199.324587,73.3041793 C199.637286,73.6657366 200.094111,73.8831563 200.695078,73.956445 C201.296045,74.0297336 201.816387,73.9100306 202.256119,73.5973324 C202.402696,73.4409833 202.598129,73.3628099 202.842425,73.3628099 C203.08672,73.3628099 203.257725,73.4263258 203.355443,73.5533594 C203.629054,73.8562858 203.629054,74.1738652 203.355443,74.5061071 C202.651872,75.1510472 201.789522,75.4710695 200.768366,75.4661836 C199.747211,75.4612976 198.89219,75.1021887 198.203277,74.3888458 C197.514363,73.675503 197.165026,72.8155958 197.155254,71.8090984 C197.165026,70.8026009 197.514363,69.9402508 198.203277,69.2220221 C198.89219,68.5037933 199.725225,68.1446843 200.702407,68.1446843 C201.679589,68.1446843 202.502852,68.4647066 203.172222,69.1047608 C203.841592,69.744815 204.205586,70.5583068 204.264217,71.5452606 L204.264217,71.6185488 Z M200.731722,69.5371617 C200.164957,69.5664771 199.710574,69.7423672 199.36856,70.0648373 C199.026547,70.3873073 198.821341,70.7293159 198.752939,71.0908732 L202.901055,71.0908732 C202.813109,70.7488595 202.576146,70.4166226 202.190159,70.0941526 C201.804172,69.7716826 201.318031,69.5860208 200.731722,69.5371617 L200.731722,69.5371617 Z M208.073114,69.0241437 C208.297866,68.7603046 208.605674,68.5477707 208.996546,68.3865357 C209.387419,68.2253006 209.744085,68.1471273 210.066555,68.1520132 C210.389025,68.1568991 210.625988,68.2326295 210.777452,68.3792068 C210.928915,68.5257841 211.004645,68.7041172 211.004645,68.9142113 C211.004645,69.1243054 210.928915,69.3075243 210.777452,69.4638734 C210.625988,69.6202225 210.442769,69.6983959 210.227789,69.6983959 C209.31901,69.6983959 208.600792,70.4361572 208.073114,71.911702 L208.073114,74.6966566 C208.073114,74.9116366 207.994941,75.0948555 207.838592,75.2463187 C207.682242,75.3977819 207.494138,75.4735124 207.274272,75.4735124 C207.054406,75.4735124 206.868744,75.3977819 206.717281,75.2463187 C206.565818,75.0948555 206.490087,74.9116366 206.490087,74.6966566 L206.490087,68.9215401 C206.490087,68.7065601 206.565818,68.5257841 206.717281,68.3792068 C206.868744,68.2326295 207.054406,68.159342 207.274272,68.159342 C207.494138,68.159342 207.682242,68.2326295 207.838592,68.3792068 C207.994941,68.5257841 208.073114,68.7065601 208.073114,68.9215401 L208.073114,69.0241437 Z" id="Server-Manager" fill-opacity="0.75" sketch:type="MSShapeGroup"></path>
        </g>
    </g>
</svg>